<svg width="448" height="554" viewBox="0 0 448 554" fill="none" xmlns="http://www.w3.org/2000/svg">
    <path d="M313.526 248.508V347.619H276.163L242.861 330.129L205.498 310.452L172.196 293.691V346.162H134.833V247.05H172.196L205.498 264.54L242.861 283.488L276.163 300.978V248.508H313.526Z" fill="#B93A9D" fill-opacity="0.05"/>
    <path d="M447.545 125.347V421.953L410.182 441.629L242.86 528.352L205.497 547.3V357.093L242.86 376.77V481.711L410.182 394.989V152.311L242.86 65.5885V237.576L205.497 217.9V0L242.86 18.9477L447.545 125.347Z" fill="#38383A" fill-opacity="0.05"/>
    <path d="M37.3632 128.99V458.391H172.196V491.914H0V95.4674H172.196V128.99H37.3632Z" fill="#38383A" fill-opacity="0.05"/>
</svg>
