<svg width="33" height="32" viewBox="0 0 33 32" fill="none" xmlns="http://www.w3.org/2000/svg">
<g clip-path="url(#clip0)">
<path d="M22.4174 0H10.7053C5.31585 0 0.945312 4.37054 0.945312 9.76002V21.4721C0.945312 26.8615 5.31585 31.2321 10.7053 31.2321H22.4174C27.8068 31.2321 32.1774 26.8615 32.1774 21.4721V9.76002C32.1774 4.37054 27.8068 0 22.4174 0ZM29.2494 21.4721C29.2494 25.2394 26.1847 28.3041 22.4174 28.3041H10.7053C6.93797 28.3041 3.87332 25.2394 3.87332 21.4721V9.76002C3.87332 5.99265 6.93797 2.92801 10.7053 2.92801H22.4174C26.1847 2.92801 29.2494 5.99265 29.2494 9.76002V21.4721Z" fill="url(#paint0_linear)"/>
<path d="M16.5619 7.80811C12.2499 7.80811 8.75391 11.3041 8.75391 15.6161C8.75391 19.9281 12.2499 23.4241 16.5619 23.4241C20.8739 23.4241 24.3699 19.9281 24.3699 15.6161C24.3699 11.3041 20.8739 7.80811 16.5619 7.80811ZM16.5619 20.4961C13.8721 20.4961 11.6819 18.306 11.6819 15.6161C11.6819 12.9243 13.8721 10.7361 16.5619 10.7361C19.2518 10.7361 21.4419 12.9243 21.4419 15.6161C21.4419 18.306 19.2518 20.4961 16.5619 20.4961Z" fill="url(#paint1_linear)"/>
<path d="M24.9545 8.26248C25.5291 8.26248 25.9949 7.79667 25.9949 7.22206C25.9949 6.64745 25.5291 6.18164 24.9545 6.18164C24.3799 6.18164 23.9141 6.64745 23.9141 7.22206C23.9141 7.79667 24.3799 8.26248 24.9545 8.26248Z" fill="url(#paint2_linear)"/>
</g>
<defs>
<linearGradient id="paint0_linear" x1="3.80431" y1="28.3733" x2="29.3184" y2="2.85881" gradientUnits="userSpaceOnUse">
<stop stop-color="#FFC107"/>
<stop offset="0.507" stop-color="#F44336"/>
<stop offset="0.99" stop-color="#9C27B0"/>
</linearGradient>
<linearGradient id="paint1_linear" x1="11.041" y1="21.1371" x2="22.0829" y2="10.0952" gradientUnits="userSpaceOnUse">
<stop stop-color="#FFC107"/>
<stop offset="0.507" stop-color="#F44336"/>
<stop offset="0.99" stop-color="#9C27B0"/>
</linearGradient>
<linearGradient id="paint2_linear" x1="24.2189" y1="7.95787" x2="25.6901" y2="6.48644" gradientUnits="userSpaceOnUse">
<stop stop-color="#FFC107"/>
<stop offset="0.507" stop-color="#F44336"/>
<stop offset="0.99" stop-color="#9C27B0"/>
</linearGradient>
<clipPath id="clip0">
<rect width="31.2321" height="31.2321" fill="white" transform="translate(0.945312)"/>
</clipPath>
</defs>
</svg>
