<svg width="156" height="156" viewBox="0 0 156 156" fill="none" xmlns="http://www.w3.org/2000/svg">
    <path d="M71.2342 12.1681C74.9942 8.90594 80.5809 8.90594 84.3408 12.1681L89.6148 16.7437C91.9348 18.7565 95.0511 19.5916 98.0667 19.0084L104.922 17.6827C109.809 16.7376 114.647 19.531 116.273 24.236L118.552 30.8357C119.555 33.7388 121.836 36.0201 124.739 37.0229L131.339 39.3025C136.044 40.9276 138.837 45.7659 137.892 50.6531L136.567 57.5083C135.984 60.5239 136.819 63.6403 138.831 65.9603L143.407 71.2342C146.669 74.9942 146.669 80.5809 143.407 84.3408L138.831 89.6148C136.819 91.9348 135.984 95.0511 136.567 98.0667L137.892 104.922C138.837 109.809 136.044 114.647 131.339 116.273L124.739 118.552C121.836 119.555 119.555 121.836 118.552 124.739L116.273 131.339C114.647 136.044 109.809 138.837 104.922 137.892L98.0667 136.567C95.0511 135.984 91.9348 136.819 89.6148 138.831L84.3408 143.407C80.5809 146.669 74.9942 146.669 71.2342 143.407L65.9603 138.831C63.6403 136.819 60.5239 135.984 57.5083 136.567L50.6531 137.892C45.7659 138.837 40.9276 136.044 39.3025 131.339L37.0229 124.739C36.0201 121.836 33.7388 119.555 30.8357 118.552L24.236 116.273C19.531 114.647 16.7376 109.809 17.6827 104.922L19.0084 98.0667C19.5916 95.0511 18.7565 91.9348 16.7437 89.6148L12.1681 84.3408C8.90594 80.5809 8.90594 74.9942 12.1681 71.2342L16.7437 65.9603C18.7565 63.6403 19.5916 60.5239 19.0084 57.5083L17.6827 50.6531C16.7376 45.7659 19.531 40.9276 24.236 39.3025L30.8357 37.0229C33.7388 36.0201 36.0201 33.7388 37.0229 30.8357L39.3025 24.236C40.9276 19.531 45.7659 16.7376 50.6531 17.6827L57.5083 19.0084C60.5239 19.5916 63.6403 18.7565 65.9603 16.7437L71.2342 12.1681Z" fill="url(#paint0_linear)"/>
    <path d="M71.8894 6.44097C75.2734 3.50507 80.3014 3.50507 83.6854 6.44097L90.3686 12.2393C92.9206 14.4534 96.3486 15.372 99.6658 14.7305L108.353 13.0506C112.751 12.2 117.106 14.714 118.568 18.9486L121.457 27.3117C122.56 30.5052 125.07 33.0146 128.263 34.1177L136.626 37.0064C140.861 38.469 143.375 42.8234 142.524 47.222L140.844 55.909C140.203 59.2262 141.121 62.6541 143.335 65.2062L149.134 71.8894C152.07 75.2734 152.07 80.3014 149.134 83.6854L143.335 90.3686C141.121 92.9206 140.203 96.3486 140.844 99.6658L142.524 108.353C143.375 112.751 140.861 117.106 136.626 118.568L128.263 121.457C125.07 122.56 122.56 125.07 121.457 128.263L118.568 136.626C117.106 140.861 112.751 143.375 108.353 142.524L99.6658 140.844C96.3486 140.203 92.9206 141.121 90.3686 143.335L83.6854 149.134C80.3014 152.07 75.2734 152.07 71.8894 149.134L65.2062 143.335C62.6541 141.121 59.2262 140.203 55.909 140.844L47.222 142.524C42.8235 143.375 38.469 140.861 37.0064 136.626L34.1177 128.263C33.0146 125.07 30.5052 122.56 27.3117 121.457L18.9486 118.568C14.714 117.106 12.2 112.751 13.0506 108.353L14.7305 99.6658C15.372 96.3486 14.4534 92.9206 12.2393 90.3686L6.44097 83.6854C3.50507 80.3014 3.50507 75.2734 6.44097 71.8894L12.2393 65.2062C14.4534 62.6541 15.372 59.2262 14.7305 55.909L13.0506 47.222C12.2 42.8234 14.714 38.469 18.9486 37.0064L27.3117 34.1177C30.5052 33.0147 33.0146 30.5052 34.1177 27.3117L37.0064 18.9486C38.469 14.714 42.8234 12.2 47.222 13.0506L55.909 14.7305C59.2262 15.372 62.6541 14.4534 65.2062 12.2393L71.8894 6.44097Z" stroke="#B93A9D" stroke-width="2"/>
    <path d="M38.5955 84.3297C39.6755 84.3297 40.4955 83.9797 41.0555 83.2797C41.6155 82.5797 41.8955 81.6797 41.8955 80.5797C41.8955 79.3197 41.5655 78.4097 40.9055 77.8497C40.2455 77.2897 39.2955 77.0097 38.0555 77.0097L36.1055 77.1297V66.1797H44.8355V69.6597H39.1655V73.9497L40.1555 73.8297C41.7755 73.8897 43.0655 74.4897 44.0255 75.6297C44.9855 76.7697 45.4655 78.3697 45.4655 80.4297C45.4655 81.6097 45.2955 82.6497 44.9555 83.5497C44.6155 84.4497 44.1455 85.1997 43.5455 85.7997C42.9655 86.3997 42.2655 86.8497 41.4455 87.1497C40.6255 87.4497 39.7355 87.5997 38.7755 87.5997C38.0555 87.5997 37.3255 87.5197 36.5855 87.3597C35.8655 87.2197 35.2755 87.0297 34.8155 86.7897L35.7455 83.7597C36.4855 84.1397 37.4355 84.3297 38.5955 84.3297ZM58.834 76.6497C58.834 74.6897 58.964 73.0197 59.224 71.6397C59.504 70.2597 59.904 69.1397 60.424 68.2797C60.944 67.3997 61.584 66.7597 62.344 66.3597C63.104 65.9597 63.974 65.7597 64.954 65.7597C65.994 65.7597 66.894 65.9597 67.654 66.3597C68.434 66.7597 69.074 67.3997 69.574 68.2797C70.094 69.1397 70.474 70.2597 70.714 71.6397C70.974 73.0197 71.104 74.6897 71.104 76.6497C71.104 78.6297 70.964 80.3197 70.684 81.7197C70.404 83.0997 70.004 84.2297 69.484 85.1097C68.964 85.9697 68.324 86.5997 67.564 86.9997C66.804 87.3997 65.934 87.5997 64.954 87.5997C63.914 87.5997 63.004 87.3997 62.224 86.9997C61.464 86.5797 60.834 85.9297 60.334 85.0497C59.834 84.1497 59.454 83.0097 59.194 81.6297C58.954 80.2497 58.834 78.5897 58.834 76.6497ZM62.404 76.6497C62.404 79.3297 62.604 81.2997 63.004 82.5597C63.404 83.7997 64.064 84.4197 64.984 84.4197C65.424 84.4197 65.804 84.2797 66.124 83.9997C66.464 83.7197 66.734 83.2697 66.934 82.6497C67.134 82.0297 67.284 81.2297 67.384 80.2497C67.484 79.2697 67.534 78.0697 67.534 76.6497C67.534 73.9897 67.334 72.0397 66.934 70.7997C66.554 69.5597 65.894 68.9397 64.954 68.9397C64.494 68.9397 64.104 69.0797 63.784 69.3597C63.464 69.6397 63.204 70.0897 63.004 70.7097C62.804 71.3297 62.654 72.1297 62.554 73.1097C62.454 74.0897 62.404 75.2697 62.404 76.6497ZM75.2602 76.6497C75.2602 74.6897 75.3902 73.0197 75.6502 71.6397C75.9302 70.2597 76.3302 69.1397 76.8502 68.2797C77.3702 67.3997 78.0102 66.7597 78.7702 66.3597C79.5302 65.9597 80.4002 65.7597 81.3802 65.7597C82.4202 65.7597 83.3202 65.9597 84.0802 66.3597C84.8602 66.7597 85.5002 67.3997 86.0002 68.2797C86.5202 69.1397 86.9002 70.2597 87.1402 71.6397C87.4002 73.0197 87.5302 74.6897 87.5302 76.6497C87.5302 78.6297 87.3902 80.3197 87.1102 81.7197C86.8302 83.0997 86.4302 84.2297 85.9102 85.1097C85.3902 85.9697 84.7502 86.5997 83.9902 86.9997C83.2302 87.3997 82.3602 87.5997 81.3802 87.5997C80.3402 87.5997 79.4302 87.3997 78.6502 86.9997C77.8902 86.5797 77.2602 85.9297 76.7602 85.0497C76.2602 84.1497 75.8802 83.0097 75.6202 81.6297C75.3802 80.2497 75.2602 78.5897 75.2602 76.6497ZM78.8302 76.6497C78.8302 79.3297 79.0302 81.2997 79.4302 82.5597C79.8302 83.7997 80.4902 84.4197 81.4102 84.4197C81.8502 84.4197 82.2302 84.2797 82.5502 83.9997C82.8902 83.7197 83.1602 83.2697 83.3602 82.6497C83.5602 82.0297 83.7102 81.2297 83.8102 80.2497C83.9102 79.2697 83.9602 78.0697 83.9602 76.6497C83.9602 73.9897 83.7602 72.0397 83.3602 70.7997C82.9802 69.5597 82.3202 68.9397 81.3802 68.9397C80.9202 68.9397 80.5302 69.0797 80.2102 69.3597C79.8902 69.6397 79.6302 70.0897 79.4302 70.7097C79.2302 71.3297 79.0802 72.1297 78.9802 73.1097C78.8802 74.0897 78.8302 75.2697 78.8302 76.6497ZM91.6864 76.6497C91.6864 74.6897 91.8164 73.0197 92.0764 71.6397C92.3564 70.2597 92.7564 69.1397 93.2764 68.2797C93.7964 67.3997 94.4364 66.7597 95.1964 66.3597C95.9564 65.9597 96.8264 65.7597 97.8064 65.7597C98.8464 65.7597 99.7464 65.9597 100.506 66.3597C101.286 66.7597 101.926 67.3997 102.426 68.2797C102.946 69.1397 103.326 70.2597 103.566 71.6397C103.826 73.0197 103.956 74.6897 103.956 76.6497C103.956 78.6297 103.816 80.3197 103.536 81.7197C103.256 83.0997 102.856 84.2297 102.336 85.1097C101.816 85.9697 101.176 86.5997 100.416 86.9997C99.6564 87.3997 98.7864 87.5997 97.8064 87.5997C96.7664 87.5997 95.8564 87.3997 95.0764 86.9997C94.3164 86.5797 93.6864 85.9297 93.1864 85.0497C92.6864 84.1497 92.3064 83.0097 92.0464 81.6297C91.8064 80.2497 91.6864 78.5897 91.6864 76.6497ZM95.2564 76.6497C95.2564 79.3297 95.4564 81.2997 95.8564 82.5597C96.2564 83.7997 96.9164 84.4197 97.8364 84.4197C98.2764 84.4197 98.6564 84.2797 98.9764 83.9997C99.3164 83.7197 99.5864 83.2697 99.7864 82.6497C99.9864 82.0297 100.136 81.2297 100.236 80.2497C100.336 79.2697 100.386 78.0697 100.386 76.6497C100.386 73.9897 100.186 72.0397 99.7864 70.7997C99.4064 69.5597 98.7464 68.9397 97.8064 68.9397C97.3464 68.9397 96.9564 69.0797 96.6364 69.3597C96.3164 69.6397 96.0564 70.0897 95.8564 70.7097C95.6564 71.3297 95.5064 72.1297 95.4064 73.1097C95.3064 74.0897 95.2564 75.2697 95.2564 76.6497ZM107.663 80.6997H109.673V78.9897H107.663V76.2897H109.673V66.3897C110.373 66.2297 111.093 66.1097 111.833 66.0297C112.593 65.9297 113.403 65.8797 114.263 65.8797C115.163 65.8797 116.013 65.9697 116.813 66.1497C117.613 66.3297 118.313 66.6597 118.913 67.1397C119.513 67.6197 119.993 68.2797 120.353 69.1197C120.713 69.9597 120.893 71.0397 120.893 72.3597C120.893 73.5797 120.713 74.6097 120.353 75.4497C120.013 76.2897 119.553 76.9797 118.973 77.5197C118.393 78.0397 117.723 78.4197 116.963 78.6597C116.223 78.8797 115.443 78.9897 114.623 78.9897H113.093V80.6997H117.023V83.4297H113.093V87.1797H109.673V83.4297H107.663V80.6997ZM114.653 69.0597C114.313 69.0597 114.003 69.0697 113.723 69.0897C113.463 69.1097 113.253 69.1497 113.093 69.2097V76.2297H114.263C114.683 76.2497 115.073 76.1997 115.433 76.0797C115.813 75.9597 116.133 75.7597 116.393 75.4797C116.673 75.1797 116.893 74.7897 117.053 74.3097C117.213 73.8297 117.293 73.2397 117.293 72.5397C117.293 71.2997 117.043 70.4097 116.543 69.8697C116.043 69.3297 115.413 69.0597 114.653 69.0597Z" fill="#ECE8DF"/>
    <defs>
        <linearGradient id="paint0_linear" x1="37.7947" y1="30.9742" x2="130.491" y2="119.641" gradientUnits="userSpaceOnUse">
            <stop stop-color="#B93A9D"/>
            <stop offset="1" stop-color="#B93A77"/>
        </linearGradient>
    </defs>
</svg>
